<mxfile host="app.diagrams.net" modified="2022-07-03T23:14:17.769Z" agent="5.0 (Windows NT 10.0; Win64; x64) AppleWebKit/537.36 (KHTML, like Gecko) Chrome/103.0.0.0 Safari/537.36" etag="q42ueKMHrL1RvwJFQvct" version="16.6.4" type="github">
  <diagram id="-Xq1CJxqzcJcf6i9lRhb" name="Page-1">
    <mxGraphModel dx="3170" dy="953" grid="1" gridSize="10" guides="1" tooltips="1" connect="1" arrows="1" fold="1" page="1" pageScale="1" pageWidth="1100" pageHeight="850" math="0" shadow="0">
      <root>
        <mxCell id="0" />
        <mxCell id="1" parent="0" />
        <mxCell id="9tcFZ72Z2zxWujmv__jp-2" value="«User Interface»&lt;br&gt;&lt;b&gt;Main Menu&lt;/b&gt;" style="html=1;dropTarget=0;" parent="1" vertex="1">
          <mxGeometry x="-200" y="350" width="200" height="110" as="geometry" />
        </mxCell>
        <mxCell id="9tcFZ72Z2zxWujmv__jp-3" value="" style="shape=module;jettyWidth=8;jettyHeight=4;" parent="9tcFZ72Z2zxWujmv__jp-2" vertex="1">
          <mxGeometry x="1" width="20" height="20" relative="1" as="geometry">
            <mxPoint x="-27" y="7" as="offset" />
          </mxGeometry>
        </mxCell>
        <mxCell id="9tcFZ72Z2zxWujmv__jp-4" value="«User Interface»&lt;br&gt;&lt;b&gt;Edit Current Job&lt;/b&gt;" style="html=1;dropTarget=0;" parent="1" vertex="1">
          <mxGeometry x="130" y="162" width="155" height="90" as="geometry" />
        </mxCell>
        <mxCell id="9tcFZ72Z2zxWujmv__jp-5" value="" style="shape=module;jettyWidth=8;jettyHeight=4;" parent="9tcFZ72Z2zxWujmv__jp-4" vertex="1">
          <mxGeometry x="1" width="20" height="20" relative="1" as="geometry">
            <mxPoint x="-27" y="7" as="offset" />
          </mxGeometry>
        </mxCell>
        <mxCell id="9tcFZ72Z2zxWujmv__jp-6" value="«User Interface»&lt;br&gt;&lt;b&gt;Enter Job Offers&lt;/b&gt;" style="html=1;dropTarget=0;" parent="1" vertex="1">
          <mxGeometry x="130" y="292" width="155" height="90" as="geometry" />
        </mxCell>
        <mxCell id="9tcFZ72Z2zxWujmv__jp-7" value="" style="shape=module;jettyWidth=8;jettyHeight=4;" parent="9tcFZ72Z2zxWujmv__jp-6" vertex="1">
          <mxGeometry x="1" width="20" height="20" relative="1" as="geometry">
            <mxPoint x="-27" y="7" as="offset" />
          </mxGeometry>
        </mxCell>
        <mxCell id="9tcFZ72Z2zxWujmv__jp-8" value="«User Interface»&lt;br&gt;&lt;b&gt;Compare Job Offers&lt;/b&gt;" style="html=1;dropTarget=0;" parent="1" vertex="1">
          <mxGeometry x="130" y="422" width="155" height="90" as="geometry" />
        </mxCell>
        <mxCell id="9tcFZ72Z2zxWujmv__jp-9" value="" style="shape=module;jettyWidth=8;jettyHeight=4;" parent="9tcFZ72Z2zxWujmv__jp-8" vertex="1">
          <mxGeometry x="1" width="20" height="20" relative="1" as="geometry">
            <mxPoint x="-27" y="7" as="offset" />
          </mxGeometry>
        </mxCell>
        <mxCell id="9tcFZ72Z2zxWujmv__jp-10" value="«User Interface»&lt;br&gt;&lt;b&gt;Update &lt;br&gt;Comparison Settings&lt;/b&gt;" style="html=1;dropTarget=0;" parent="1" vertex="1">
          <mxGeometry x="130" y="562" width="155" height="90" as="geometry" />
        </mxCell>
        <mxCell id="9tcFZ72Z2zxWujmv__jp-11" value="" style="shape=module;jettyWidth=8;jettyHeight=4;" parent="9tcFZ72Z2zxWujmv__jp-10" vertex="1">
          <mxGeometry x="1" width="20" height="20" relative="1" as="geometry">
            <mxPoint x="-27" y="7" as="offset" />
          </mxGeometry>
        </mxCell>
        <mxCell id="9tcFZ72Z2zxWujmv__jp-12" value="«Data Component»&lt;br&gt;&lt;b&gt;Job&lt;br&gt;&amp;nbsp;&lt;/b&gt;" style="html=1;dropTarget=0;" parent="1" vertex="1">
          <mxGeometry x="420" y="240" width="200" height="110" as="geometry" />
        </mxCell>
        <mxCell id="9tcFZ72Z2zxWujmv__jp-13" value="" style="shape=module;jettyWidth=8;jettyHeight=4;" parent="9tcFZ72Z2zxWujmv__jp-12" vertex="1">
          <mxGeometry x="1" width="20" height="20" relative="1" as="geometry">
            <mxPoint x="-27" y="7" as="offset" />
          </mxGeometry>
        </mxCell>
        <mxCell id="9tcFZ72Z2zxWujmv__jp-15" value="«Data Component»&lt;br&gt;&lt;b&gt;ComparisonSettings&lt;/b&gt;" style="html=1;dropTarget=0;" parent="1" vertex="1">
          <mxGeometry x="420" y="420" width="200" height="110" as="geometry" />
        </mxCell>
        <mxCell id="9tcFZ72Z2zxWujmv__jp-16" value="" style="shape=module;jettyWidth=8;jettyHeight=4;" parent="9tcFZ72Z2zxWujmv__jp-15" vertex="1">
          <mxGeometry x="1" width="20" height="20" relative="1" as="geometry">
            <mxPoint x="-27" y="7" as="offset" />
          </mxGeometry>
        </mxCell>
        <mxCell id="9tcFZ72Z2zxWujmv__jp-17" value="«Job Score Calculator Component»&lt;br&gt;&lt;b&gt;Job Calculator&lt;/b&gt;" style="html=1;dropTarget=0;" parent="1" vertex="1">
          <mxGeometry x="770" y="130" width="200" height="110" as="geometry" />
        </mxCell>
        <mxCell id="9tcFZ72Z2zxWujmv__jp-18" value="" style="shape=module;jettyWidth=8;jettyHeight=4;" parent="9tcFZ72Z2zxWujmv__jp-17" vertex="1">
          <mxGeometry x="1" width="20" height="20" relative="1" as="geometry">
            <mxPoint x="-27" y="7" as="offset" />
          </mxGeometry>
        </mxCell>
        <mxCell id="9tcFZ72Z2zxWujmv__jp-19" value="«Infrastructure»&lt;br&gt;&lt;b&gt;Persistence&lt;/b&gt;" style="html=1;dropTarget=0;" parent="1" vertex="1">
          <mxGeometry x="771" y="458" width="200" height="110" as="geometry" />
        </mxCell>
        <mxCell id="9tcFZ72Z2zxWujmv__jp-20" value="" style="shape=module;jettyWidth=8;jettyHeight=4;" parent="9tcFZ72Z2zxWujmv__jp-19" vertex="1">
          <mxGeometry x="1" width="20" height="20" relative="1" as="geometry">
            <mxPoint x="-27" y="7" as="offset" />
          </mxGeometry>
        </mxCell>
        <mxCell id="9tcFZ72Z2zxWujmv__jp-21" value="«Database»&lt;br&gt;&lt;b&gt;App Database&lt;/b&gt;" style="html=1;dropTarget=0;" parent="1" vertex="1">
          <mxGeometry x="771" y="651" width="200" height="110" as="geometry" />
        </mxCell>
        <mxCell id="9tcFZ72Z2zxWujmv__jp-22" value="" style="shape=module;jettyWidth=8;jettyHeight=4;" parent="9tcFZ72Z2zxWujmv__jp-21" vertex="1">
          <mxGeometry x="1" width="20" height="20" relative="1" as="geometry">
            <mxPoint x="-27" y="7" as="offset" />
          </mxGeometry>
        </mxCell>
        <mxCell id="9tcFZ72Z2zxWujmv__jp-29" value="" style="rounded=0;orthogonalLoop=1;jettySize=auto;html=1;endArrow=none;endFill=0;sketch=0;sourcePerimeterSpacing=0;targetPerimeterSpacing=0;exitX=1;exitY=0.5;exitDx=0;exitDy=0;" parent="1" source="9tcFZ72Z2zxWujmv__jp-21" target="9tcFZ72Z2zxWujmv__jp-31" edge="1">
          <mxGeometry relative="1" as="geometry">
            <mxPoint x="1010" y="458" as="sourcePoint" />
            <Array as="points">
              <mxPoint x="1035" y="706" />
            </Array>
          </mxGeometry>
        </mxCell>
        <mxCell id="9tcFZ72Z2zxWujmv__jp-30" value="" style="rounded=0;orthogonalLoop=1;jettySize=auto;html=1;endArrow=halfCircle;endFill=0;entryX=0.5;entryY=0.5;endSize=6;strokeWidth=1;sketch=0;exitX=1;exitY=0.5;exitDx=0;exitDy=0;" parent="1" source="9tcFZ72Z2zxWujmv__jp-19" target="9tcFZ72Z2zxWujmv__jp-31" edge="1">
          <mxGeometry relative="1" as="geometry">
            <mxPoint x="1030" y="508" as="sourcePoint" />
            <Array as="points">
              <mxPoint x="1035" y="513" />
            </Array>
          </mxGeometry>
        </mxCell>
        <mxCell id="9tcFZ72Z2zxWujmv__jp-31" value="" style="ellipse;whiteSpace=wrap;html=1;align=center;aspect=fixed;resizable=0;points=[];outlineConnect=0;sketch=0;" parent="1" vertex="1">
          <mxGeometry x="1030" y="660" width="10" height="10" as="geometry" />
        </mxCell>
        <mxCell id="ViLlW6DITvoyV2AObx03-1" value="" style="endArrow=none;html=1;rounded=0;" edge="1" parent="1">
          <mxGeometry relative="1" as="geometry">
            <mxPoint x="680" y="390" as="sourcePoint" />
            <mxPoint x="720" y="390" as="targetPoint" />
          </mxGeometry>
        </mxCell>
        <mxCell id="ViLlW6DITvoyV2AObx03-4" value="" style="endArrow=none;html=1;rounded=0;exitX=1;exitY=0.5;exitDx=0;exitDy=0;" edge="1" parent="1" source="9tcFZ72Z2zxWujmv__jp-12">
          <mxGeometry width="50" height="50" relative="1" as="geometry">
            <mxPoint x="650" y="232" as="sourcePoint" />
            <mxPoint x="680" y="390" as="targetPoint" />
            <Array as="points">
              <mxPoint x="680" y="295" />
            </Array>
          </mxGeometry>
        </mxCell>
        <mxCell id="ViLlW6DITvoyV2AObx03-5" value="" style="endArrow=none;html=1;rounded=0;exitX=1;exitY=0.5;exitDx=0;exitDy=0;" edge="1" parent="1" source="9tcFZ72Z2zxWujmv__jp-15">
          <mxGeometry width="50" height="50" relative="1" as="geometry">
            <mxPoint x="710" y="390" as="sourcePoint" />
            <mxPoint x="680" y="390" as="targetPoint" />
            <Array as="points">
              <mxPoint x="680" y="475" />
            </Array>
          </mxGeometry>
        </mxCell>
        <mxCell id="ViLlW6DITvoyV2AObx03-8" value="" style="rounded=0;orthogonalLoop=1;jettySize=auto;html=1;endArrow=none;endFill=0;sketch=0;sourcePerimeterSpacing=0;targetPerimeterSpacing=0;exitX=0;exitY=0.5;exitDx=0;exitDy=0;" edge="1" target="ViLlW6DITvoyV2AObx03-10" parent="1" source="9tcFZ72Z2zxWujmv__jp-19">
          <mxGeometry relative="1" as="geometry">
            <mxPoint x="730" y="578" as="sourcePoint" />
          </mxGeometry>
        </mxCell>
        <mxCell id="ViLlW6DITvoyV2AObx03-9" value="" style="rounded=0;orthogonalLoop=1;jettySize=auto;html=1;endArrow=halfCircle;endFill=0;entryX=0.5;entryY=0.5;endSize=6;strokeWidth=1;sketch=0;" edge="1" target="ViLlW6DITvoyV2AObx03-10" parent="1">
          <mxGeometry relative="1" as="geometry">
            <mxPoint x="720" y="390" as="sourcePoint" />
            <Array as="points">
              <mxPoint x="725" y="390" />
            </Array>
          </mxGeometry>
        </mxCell>
        <mxCell id="ViLlW6DITvoyV2AObx03-10" value="" style="ellipse;whiteSpace=wrap;html=1;align=center;aspect=fixed;resizable=0;points=[];outlineConnect=0;sketch=0;" vertex="1" parent="1">
          <mxGeometry x="720" y="508" width="10" height="10" as="geometry" />
        </mxCell>
        <mxCell id="ViLlW6DITvoyV2AObx03-11" value="" style="rounded=0;orthogonalLoop=1;jettySize=auto;html=1;endArrow=none;endFill=0;sketch=0;sourcePerimeterSpacing=0;targetPerimeterSpacing=0;" edge="1" target="ViLlW6DITvoyV2AObx03-13" parent="1">
          <mxGeometry relative="1" as="geometry">
            <mxPoint x="420" y="287" as="sourcePoint" />
          </mxGeometry>
        </mxCell>
        <mxCell id="ViLlW6DITvoyV2AObx03-13" value="" style="ellipse;whiteSpace=wrap;html=1;align=center;aspect=fixed;resizable=0;points=[];outlineConnect=0;sketch=0;" vertex="1" parent="1">
          <mxGeometry x="370" y="282" width="10" height="10" as="geometry" />
        </mxCell>
        <mxCell id="ViLlW6DITvoyV2AObx03-23" value="" style="html=1;verticalAlign=bottom;endArrow=open;dashed=1;endSize=8;rounded=0;entryX=0;entryY=0.5;entryDx=0;entryDy=0;exitX=1;exitY=0.5;exitDx=0;exitDy=0;" edge="1" parent="1" source="9tcFZ72Z2zxWujmv__jp-2" target="9tcFZ72Z2zxWujmv__jp-6">
          <mxGeometry relative="1" as="geometry">
            <mxPoint x="120" y="720" as="sourcePoint" />
            <mxPoint x="40" y="720" as="targetPoint" />
          </mxGeometry>
        </mxCell>
        <mxCell id="ViLlW6DITvoyV2AObx03-24" value="" style="html=1;verticalAlign=bottom;endArrow=open;dashed=1;endSize=8;rounded=0;entryX=0;entryY=0.5;entryDx=0;entryDy=0;exitX=1;exitY=0.5;exitDx=0;exitDy=0;" edge="1" parent="1" source="9tcFZ72Z2zxWujmv__jp-2" target="9tcFZ72Z2zxWujmv__jp-8">
          <mxGeometry relative="1" as="geometry">
            <mxPoint x="10" y="415.0000000000001" as="sourcePoint" />
            <mxPoint x="140" y="347" as="targetPoint" />
          </mxGeometry>
        </mxCell>
        <mxCell id="ViLlW6DITvoyV2AObx03-25" value="" style="html=1;verticalAlign=bottom;endArrow=open;dashed=1;endSize=8;rounded=0;entryX=0;entryY=0.5;entryDx=0;entryDy=0;exitX=1;exitY=0.5;exitDx=0;exitDy=0;" edge="1" parent="1" source="9tcFZ72Z2zxWujmv__jp-2" target="9tcFZ72Z2zxWujmv__jp-10">
          <mxGeometry relative="1" as="geometry">
            <mxPoint y="410" as="sourcePoint" />
            <mxPoint x="140" y="477" as="targetPoint" />
          </mxGeometry>
        </mxCell>
        <mxCell id="ViLlW6DITvoyV2AObx03-26" value="" style="html=1;verticalAlign=bottom;endArrow=open;dashed=1;endSize=8;rounded=0;entryX=-0.012;entryY=0.425;entryDx=0;entryDy=0;exitX=1;exitY=0.5;exitDx=0;exitDy=0;entryPerimeter=0;" edge="1" parent="1" source="9tcFZ72Z2zxWujmv__jp-2" target="9tcFZ72Z2zxWujmv__jp-4">
          <mxGeometry relative="1" as="geometry">
            <mxPoint x="10" y="415.0000000000001" as="sourcePoint" />
            <mxPoint x="140" y="617" as="targetPoint" />
          </mxGeometry>
        </mxCell>
        <mxCell id="ViLlW6DITvoyV2AObx03-29" value="" style="rounded=0;orthogonalLoop=1;jettySize=auto;html=1;endArrow=none;endFill=0;sketch=0;sourcePerimeterSpacing=0;targetPerimeterSpacing=0;exitX=0;exitY=0.5;exitDx=0;exitDy=0;" edge="1" target="ViLlW6DITvoyV2AObx03-31" parent="1" source="9tcFZ72Z2zxWujmv__jp-17">
          <mxGeometry relative="1" as="geometry">
            <mxPoint x="580" y="171" as="sourcePoint" />
          </mxGeometry>
        </mxCell>
        <mxCell id="ViLlW6DITvoyV2AObx03-31" value="" style="ellipse;whiteSpace=wrap;html=1;align=center;aspect=fixed;resizable=0;points=[];outlineConnect=0;sketch=0;" vertex="1" parent="1">
          <mxGeometry x="700" y="180" width="10" height="10" as="geometry" />
        </mxCell>
        <mxCell id="ViLlW6DITvoyV2AObx03-32" value="" style="rounded=0;orthogonalLoop=1;jettySize=auto;html=1;endArrow=none;endFill=0;sketch=0;sourcePerimeterSpacing=0;targetPerimeterSpacing=0;" edge="1" parent="1" target="ViLlW6DITvoyV2AObx03-33">
          <mxGeometry relative="1" as="geometry">
            <mxPoint x="420" y="485" as="sourcePoint" />
          </mxGeometry>
        </mxCell>
        <mxCell id="ViLlW6DITvoyV2AObx03-33" value="" style="ellipse;whiteSpace=wrap;html=1;align=center;aspect=fixed;resizable=0;points=[];outlineConnect=0;sketch=0;" vertex="1" parent="1">
          <mxGeometry x="380" y="480" width="10" height="10" as="geometry" />
        </mxCell>
        <mxCell id="ViLlW6DITvoyV2AObx03-34" value="" style="html=1;verticalAlign=bottom;endArrow=open;dashed=1;endSize=8;rounded=0;exitX=1;exitY=0.5;exitDx=0;exitDy=0;" edge="1" parent="1" source="9tcFZ72Z2zxWujmv__jp-4" target="ViLlW6DITvoyV2AObx03-13">
          <mxGeometry relative="1" as="geometry">
            <mxPoint x="10" y="415" as="sourcePoint" />
            <mxPoint x="138.13999999999987" y="210.2500000000001" as="targetPoint" />
          </mxGeometry>
        </mxCell>
        <mxCell id="ViLlW6DITvoyV2AObx03-35" value="" style="html=1;verticalAlign=bottom;endArrow=open;dashed=1;endSize=8;rounded=0;exitX=1;exitY=0.5;exitDx=0;exitDy=0;" edge="1" parent="1" source="9tcFZ72Z2zxWujmv__jp-6">
          <mxGeometry relative="1" as="geometry">
            <mxPoint x="295" y="217" as="sourcePoint" />
            <mxPoint x="370" y="290" as="targetPoint" />
          </mxGeometry>
        </mxCell>
        <mxCell id="ViLlW6DITvoyV2AObx03-36" value="" style="html=1;verticalAlign=bottom;endArrow=open;dashed=1;endSize=8;rounded=0;exitX=1;exitY=0.5;exitDx=0;exitDy=0;" edge="1" parent="1" source="9tcFZ72Z2zxWujmv__jp-10" target="ViLlW6DITvoyV2AObx03-33">
          <mxGeometry relative="1" as="geometry">
            <mxPoint x="280" y="588" as="sourcePoint" />
            <mxPoint x="380" y="220" as="targetPoint" />
          </mxGeometry>
        </mxCell>
        <mxCell id="ViLlW6DITvoyV2AObx03-38" value="" style="rounded=0;orthogonalLoop=1;jettySize=auto;html=1;endArrow=halfCircle;endFill=0;endSize=6;strokeWidth=1;sketch=0;" edge="1" parent="1" target="ViLlW6DITvoyV2AObx03-31">
          <mxGeometry relative="1" as="geometry">
            <mxPoint x="690" y="390" as="sourcePoint" />
            <mxPoint x="710" y="170" as="targetPoint" />
            <Array as="points">
              <mxPoint x="705" y="390" />
            </Array>
          </mxGeometry>
        </mxCell>
      </root>
    </mxGraphModel>
  </diagram>
</mxfile>
